#!OML:ASF F:\VICON\USERDATA\INSTALL\rory3\rory3.ASF
:FULLY-SPECIFIED
:DEGREES

244
root 3.75976 18.0872 24.9167 -3.74785 -2.17137 -5.38696
lowerback 10.5805 -0.218895 3.30069
upperback 0.554899 0.264638 2.88235
thorax -5.36075 0.083766 1.11686
lowerneck -16.6866 -2.64576 -2.13016
upperneck 17.4093 -3.18248 0.436732
head 8.19469 -1.60584 0.118282
rclavicle 1.43001e-014 -5.96354e-015
rhumerus -32.064 -20.8009 -77.1006
rradius 22.9927
rwrist 7.309
rhand -16.1405 22.323
rfingers 7.12502
rthumb 10.0646 -7.41631
lclavicle 1.43001e-014 -5.96354e-015
lhumerus -32.6645 -1.31106 84.3782
lradius 32.2459
lwrist 5.45444
lhand -27.0778 21.0616
lfingers 7.12502
lthumb -0.495277 51.0407
rfemur -13.0006 6.23644 30.6201
rtibia 29.3669
rfoot -9.13558 -4.04124
rtoes 10.651
lfemur -10.9922 -0.0782664 -14.2371
ltibia 69.7545
lfoot 2.67635 -12.7757
ltoes -6.55285
245
root 3.73814 18.0965 25.0885 -3.77849 -2.40193 -5.83464
lowerback 10.7446 -0.087776 3.59172
upperback 0.50452 0.492233 2.9971
thorax -5.50397 0.188233 1.04052
lowerneck -16.9074 -2.66803 -1.95432
upperneck 17.8187 -3.21757 0.248821
head 8.36555 -1.62935 0.0164982
rclavicle -3.70858e-015 -2.46493e-014
rhumerus -31.7591 -20.2412 -77.4035
rradius 23.0137
rwrist 7.04908
rhand -16.7557 22.6063
rfingers 7.12502
rthumb 9.47104 -7.16085
lclavicle -3.70858e-015 -2.46493e-014
lhumerus -33.0475 -1.20606 84.454
lradius 32.2766
lwrist 5.4704
lhand -26.6105 22.3865
lfingers 7.12502
lthumb -0.0439381 52.3663
rfemur -12.0424 6.46843 31.3211
rtibia 28.8666
rfoot -9.51833 -4.3034
rtoes 11.2113
lfemur -12.5912 0.422669 -13.5485
ltibia 70.2301
lfoot 2.50896 -12.5802
ltoes -4.32928
246
root 3.72542 18.1362 25.2647 -3.78948 -2.59985 -5.94885
lowerback 10.9193 0.0543752 3.73807
upperback 0.411199 0.712431 2.96697
thorax -5.69679 0.289568 0.893674
lowerneck -16.7946 -2.72126 -2.05474
upperneck 18.0034 -3.28854 0.341216
head 8.41223 -1.66051 0.0553473
rclavicle -1.17594e-014 2.40529e-014
rhumerus -31.4632 -19.9307 -77.6294
rradius 23.0538
rwrist 7.05216
rhand -17.291 23.2399
rfingers 7.12502
rthumb 8.95454 -6.55009
lclavicle -1.17594e-014 2.40529e-014
lhumerus -33.5021 -1.30618 84.6325
lradius 32.2809
lwrist 6.14747
lhand -26.4443 23.2502
lfingers 7.12502
lthumb 0.116656 53.2299
rfemur -11.1284 6.56731 31.5963
rtibia 28.3973
rfoot -9.72396 -4.28934
rtoes 11.2457
lfemur -14.5163 0.933739 -13.4039
ltibia 70.4593
lfoot 2.10682 -12.3777
ltoes -1.19553
247
root 3.7195 18.1596 25.4428 -3.79255 -2.79097 -5.87242
lowerback 10.9775 0.244156 3.76836
upperback 0.367806 0.967541 2.8564
thorax -5.76981 0.411408 0.72061
lowerneck -16.5878 -2.84754 -2.22262
upperneck 17.9661 -3.46267 0.52522
head 8.37173 -1.7358 0.126485
rclavicle 1.88224e-015 -2.92213e-014
rhumerus -31.1009 -19.7272 -77.8798
rradius 23.1578
rwrist 6.78335
rhand -17.4343 23.7867
rfingers 7.12502
rthumb 8.81629 -6.00912
lclavicle 1.88224e-015 -2.92213e-014
lhumerus -33.9368 -1.29156 84.7304
lradius 32.3644
lwrist 6.68652
lhand -25.9895 22.9415
lfingers 7.12502
lthumb 0.555899 52.9205
rfemur -10.3626 6.59398 31.6268
rtibia 28.1774
rfoot -10.0188 -4.27592
rtoes 10.5706
lfemur -16.0281 1.30053 -13.5617
ltibia 70.3945
lfoot -0.0612451 -11.9711
ltoes 2.67923
248
root 3.7142 18.1494 25.6192 -3.7094 -2.79063 -5.75623
lowerback 10.9298 0.342199 3.72486
upperback 0.292119 1.08627 2.73924
thorax -5.81947 0.468209 0.603761
lowerneck -16.6301 -2.87278 -2.14092
upperneck 18.1028 -3.52268 0.54295
head 8.42493 -1.75631 0.110145
rclavicle -1.39211e-014 -7.55382e-015
rhumerus -30.941 -18.8831 -78.3891
rradius 23.7599
rwrist 5.90039
rhand -17.3291 23.5683
rfingers 7.12502
rthumb 8.91782 -6.22319
lclavicle -1.39211e-014 -7.55382e-015
lhumerus -34.3291 -1.29912 84.7464
lradius 32.2738
lwrist 6.95395
lhand -25.4148 23.5138
lfingers 7.12502
lthumb 1.11094 53.4907
rfemur -9.85994 6.6763 31.6032
rtibia 28.2718
rfoot -10.7233 -4.63767
rtoes 9.91532
lfemur -17.2622 1.43107 -13.7647
ltibia 70.1411
lfoot 0.496569 -11.4904
ltoes -1.82621
249
root 3.71256 18.1334 25.8053 -3.71339 -2.74768 -5.5827
lowerback 10.7857 0.397774 3.66423
upperback 0.311917 1.13537 2.60537
thorax -5.71476 0.493747 0.490469
lowerneck -16.7291 -2.78113 -1.98068
upperneck 18.2261 -3.42953 0.508911
head 8.47922 -1.70415 0.0815448
rclavicle -1.5294e-014 -7.15625e-015
rhumerus -30.7806 -17.2401 -79.1899
rradius 24.7521
rwrist 4.58998
rhand -17.1452 22.2096
rfingers 7.12502
rthumb 9.09519 -7.57425
lclavicle -1.5294e-014 -7.15625e-015
lhumerus -34.5275 -1.3739 84.789
lradius 31.9751
lwrist 7.38842
lhand -26.0228 22.0601
lfingers 7.12502
lthumb 0.523772 52.0392
rfemur -9.33882 6.5469 31.4878
rtibia 28.6322
rfoot -11.675 -4.84481
rtoes 9.49921
lfemur -18.0396 1.44048 -14.0254
ltibia 69.7377
lfoot -0.138288 -11.2492
ltoes -10.7872
250
root 3.70632 18.1136 25.9869 -3.75357 -2.74517 -5.48204
lowerback 10.7263 0.486871 3.64559
upperback 0.331755 1.24012 2.48407
thorax -5.65597 0.545075 0.358054
lowerneck -16.552 -2.7631 -1.90458
upperneck 18.1425 -3.44214 0.578822
head 8.41928 -1.69829 0.0941665
rclavicle -1.15481e-014 -1.07344e-014
rhumerus -30.5774 -16.4105 -79.6771
rradius 25.486
rwrist 4.23556
rhand -16.9427 20.5537
rfingers 7.12502
rthumb 9.29064 -9.22159
lclavicle -1.15481e-014 -1.07344e-014
lhumerus -34.8906 -1.64878 84.9149
lradius 31.8769
lwrist 8.32452
lhand -27.377 20.43
lfingers 7.12502
lthumb -0.78424 50.4083
rfemur -8.78878 6.52668 31.4818
rtibia 29.0537
rfoot -12.5361 -5.02403
rtoes 9.05959
lfemur -18.7476 1.33397 -14.1356
ltibia 69.3282
lfoot -3.30852 -9.49133
ltoes -3.7577
251
root 3.69446 18.0908 26.1549 -3.61614 -2.97105 -5.65768
lowerback 10.7712 0.680822 3.84021
upperback 0.256091 1.52467 2.4302
thorax -5.7492 0.676891 0.148066
lowerneck -16.5812 -2.91931 -1.8232
upperneck 18.1946 -3.66302 0.506938
head 8.44174 -1.8041 0.0291222
rclavicle -1.91144e-014 -3.97569e-015
rhumerus -30.4342 -15.9828 -80.0014
rradius 26.1587
rwrist 4.22381
rhand -17.115 19.4444
rfingers 7.12502
rthumb 9.12436 -10.3383
lclavicle -1.91144e-014 -3.97569e-015
lhumerus -35.2912 -2.1308 85.2177
lradius 31.9713
lwrist 9.90706
lhand -28.1353 21.0341
lfingers 7.12502
lthumb -1.51663 51.0084
rfemur -8.4464 6.99204 31.8422
rtibia 29.3867
rfoot -13.2184 -5.47563
rtoes 8.48999
lfemur -19.8985 1.34661 -13.7768
ltibia 68.9438
lfoot -4.14119 -9.11682
ltoes -4.4139
252
root 3.68714 18.084 26.3253 -3.62065 -3.2059 -5.74732
lowerback 10.9362 0.824475 3.92286
upperback 0.252553 1.73294 2.38512
thorax -5.83692 0.774669 0.0196329
lowerneck -16.6292 -2.95163 -1.79011
upperneck 18.1446 -3.71773 0.52312
head 8.43365 -1.82569 0.0222025
rclavicle 1.53934e-014 7.95139e-015
rhumerus -30.0824 -15.2681 -80.3803
rradius 26.6609
rwrist 3.94895
rhand -17.0282 18.7655
rfingers 7.12502
rthumb 9.20816 -11.0134
lclavicle 1.53934e-014 7.95139e-015
lhumerus -35.6333 -2.60413 85.484
lradius 32.3113
lwrist 11.4124
lhand -28.1452 21.6307
lfingers 7.12502
lthumb -1.5261 51.605
rfemur -7.86725 7.38878 32.105
rtibia 29.5733
rfoot -13.8452 -5.80809
rtoes 8.37681
lfemur -20.9121 1.13446 -13.4762
ltibia 68.4284
lfoot -4.10223 -8.7291
ltoes -0.461825
